<?xml version="1.0" encoding="UTF-8" standalone="no"?>
<svg
   xmlns:dc="http://purl.org/dc/elements/1.1/"
   xmlns:cc="http://creativecommons.org/ns#"
   xmlns:rdf="http://www.w3.org/1999/02/22-rdf-syntax-ns#"
   xmlns:svg="http://www.w3.org/2000/svg"
   xmlns="http://www.w3.org/2000/svg"
   xmlns:sodipodi="http://sodipodi.sourceforge.net/DTD/sodipodi-0.dtd"
   xmlns:inkscape="http://www.inkscape.org/namespaces/inkscape"
   width="4096"
   height="4096"
   viewBox="0 0 4096 4096"
   version="1.1"
   id="svg69"
   sodipodi:docname="apple-podcasts.svg"
   inkscape:version="0.92.2 (5c3e80d, 2017-08-06)"
   inkscape:export-filename="G:\Users\suitedoalex\sites\apple-podcasts-logo-0.png"
   inkscape:export-xdpi="96"
   inkscape:export-ydpi="96">
  <metadata
     id="metadata73">
    <rdf:RDF>
      <cc:Work
         rdf:about="">
        <dc:format>image/svg+xml</dc:format>
        <dc:type
           rdf:resource="http://purl.org/dc/dcmitype/StillImage" />
        <dc:title>discover-apple</dc:title>
      </cc:Work>
    </rdf:RDF>
  </metadata>
  <sodipodi:namedview
     pagecolor="#ffffff"
     bordercolor="#666666"
     borderopacity="1"
     objecttolerance="10"
     gridtolerance="10"
     guidetolerance="10"
     inkscape:pageopacity="0"
     inkscape:pageshadow="2"
     inkscape:window-width="1600"
     inkscape:window-height="837"
     id="namedview71"
     showgrid="false"
     inkscape:zoom="0.053547297"
     inkscape:cx="-1537.7161"
     inkscape:cy="690.63377"
     inkscape:window-x="-8"
     inkscape:window-y="-8"
     inkscape:window-maximized="1"
     inkscape:current-layer="discover-apple" />
  <!-- Generator: Sketch 52.5 (67469) - http://www.bohemiancoding.com/sketch -->
  <title
     id="title2">discover-apple</title>
  <desc
     id="desc4">Created with Sketch.</desc>
  <defs
     id="defs11">
    <linearGradient
       x1="14.710701"
       y1="0.46979645"
       x2="14.710701"
       y2="28.730585"
       id="linearGradient-1"
       gradientTransform="scale(0.99831905,1.0016838)"
       gradientUnits="userSpaceOnUse">
      <stop
         stop-color="#F452FF"
         offset="0%"
         id="stop6" />
      <stop
         stop-color="#832BC1"
         offset="100%"
         id="stop8" />
    </linearGradient>
    <linearGradient
       x1="14.710701"
       y1="0.46979645"
       x2="14.710701"
       y2="28.730585"
       id="linearGradient-1-8"
       gradientTransform="scale(0.99831905,1.0016838)"
       gradientUnits="userSpaceOnUse">
      <stop
         stop-color="#F452FF"
         offset="0%"
         id="stop6-4" />
      <stop
         stop-color="#832BC1"
         offset="100%"
         id="stop8-0" />
    </linearGradient>
  </defs>
  <g
     id="Page-1"
     inkscape:export-filename="G:\Users\suitedoalex\sites\listen-on-apple-podcasts-6.png"
     inkscape:export-xdpi="103.874"
     inkscape:export-ydpi="103.874"
     style="fill:none;fill-rule:evenodd;stroke:none;stroke-width:1"
     transform="translate(0,4051)">
    <g
       id="Home---Best-Practices"
       transform="translate(-197,-1723)">
      <g
         id="discover-apple"
         transform="translate(197,1723)">
        <g
           id="XMLID_632_"
           transform="matrix(94.601595,0,0,94.601595,658.68356,-3386.527)"
           inkscape:export-filename="G:\Users\suitedoalex\sites\apple-podcasts-logo-6.png"
           inkscape:export-xdpi="1.7984118"
           inkscape:export-ydpi="1.7984118">
          <path
             d="m 28.234476,25.006612 c -0.274249,0.698963 -0.907061,1.683113 -1.804479,2.376338 -0.518112,0.400387 -1.136685,0.783112 -1.986339,1.035675 -0.905716,0.269325 -2.021322,0.360337 -3.409831,0.360337 H 8.3380061 c -1.388397,0 -2.5040031,-0.09101 -3.4098303,-0.360337 C 4.0785212,28.166062 3.4600606,27.783337 2.9418364,27.38295 2.0445303,26.689612 1.4116061,25.705575 1.1373576,25.006612 0.58493636,23.598337 0.5793303,22.0005 0.5793303,20.994187 V 8.2553625 c 0,-1.0063125 0.005606,-2.60415 0.5580273,-4.012425 C 1.4116061,3.543975 2.0444182,2.559825 2.9418364,1.8666 3.4599485,1.4662125 4.0785212,1.0834875 4.9281758,0.830925 5.8338909,0.5616 6.949497,0.4705875 8.3380061,0.4705875 H 21.033939 c 1.388397,0 2.504003,0.0910125 3.409831,0.3603375 0.849654,0.2525625 1.468115,0.6354 1.986339,1.035675 0.897306,0.6933375 1.53023,1.677375 1.804479,2.3763375 0.552421,1.408275 0.558027,3.0061125 0.558027,4.012425 V 20.994187 c -1.12e-4,1.0062 -0.0057,2.604038 -0.558139,4.012425 z"
             id="XMLID_662_"
             style="fill:url(#linearGradient-1)"
             inkscape:connector-curvature="0" />
          <path
             d="m 28.234476,25.006612 c -0.274249,0.698963 -0.907061,1.683113 -1.804479,2.376338 -0.518112,0.400387 -1.136685,0.783112 -1.986339,1.035675 -0.905716,0.269325 -2.021322,0.360337 -3.409831,0.360337 H 8.3380061 c -1.388397,0 -2.5040031,-0.09101 -3.4098303,-0.360337 C 4.0785212,28.166062 3.4600606,27.783337 2.9418364,27.38295 2.0445303,26.689612 1.4116061,25.705575 1.1373576,25.006612 0.58493636,23.598337 0.5793303,22.0005 0.5793303,20.994187 V 8.2553625 c 0,-1.0063125 0.005606,-2.60415 0.5580273,-4.012425 C 1.4116061,3.543975 2.0444182,2.559825 2.9418364,1.8666 3.4599485,1.4662125 4.0785212,1.0834875 4.9281758,0.830925 5.8338909,0.5616 6.949497,0.4705875 8.3380061,0.4705875 H 21.033939 c 1.388397,0 2.504003,0.0910125 3.409831,0.3603375 0.849654,0.2525625 1.468115,0.6354 1.986339,1.035675 0.897306,0.6933375 1.53023,1.677375 1.804479,2.3763375 0.552421,1.408275 0.558027,3.0061125 0.558027,4.012425 V 20.994187 c -1.12e-4,1.0062 -0.0057,2.604038 -0.558139,4.012425 z"
             id="XMLID_660_"
             inkscape:connector-curvature="0" />
          <g
             id="XMLID_648_"
             transform="translate(4.484848,3.375)"
             style="fill:#ffffff;fill-rule:nonzero">
            <path
               d="m 12.247224,13.366687 c -0.423369,-0.4482 -1.166957,-0.735524 -2.044754,-0.735524 -0.8779094,0 -1.6214973,0.287324 -2.044867,0.735524 -0.2208788,0.233888 -0.3377091,0.473626 -0.3744848,0.815175 -0.071309,0.661388 -0.031282,1.230863 0.04597,2.141325 0.073551,0.8676 0.2132545,2.02455 0.3955636,3.202875 0.1297243,0.838575 0.2351182,1.291163 0.331094,1.615275 0.1556242,0.525263 0.7371969,0.9846 1.6467242,0.9846 0.909415,0 1.490988,-0.45945 1.646612,-0.9846 0.09598,-0.324112 0.201369,-0.7767 0.331094,-1.615275 0.182309,-1.178325 0.322012,-2.335275 0.395563,-3.202875 0.07725,-0.910574 0.117279,-1.48005 0.04597,-2.141325 -0.03678,-0.341437 -0.153606,-0.581287 -0.374485,-0.815175 z M 7.8956879,9.375975 c 0,1.279463 1.0337575,2.316713 2.3089121,2.316713 1.275267,0 2.309024,-1.03725 2.309024,-2.316713 0,-1.279575 -1.033757,-2.316825 -2.309024,-2.316825 -1.2751546,0 -2.3089121,1.03725 -2.3089121,2.316825 z M 10.176009,0.2331 c -5.4000938,0.0154125 -9.82495749,4.411125 -9.89178173,9.829125 -0.0542667,4.388963 2.73800003,8.143312 6.63701513,9.519412 0.09463,0.03341 0.1907182,-0.04545 0.1758061,-0.145012 C 7.0459212,19.095862 6.9977091,18.753412 6.9534212,18.4167 6.9377242,18.297675 6.8621545,18.195075 6.7526121,18.147037 3.6708485,16.796137 1.5189061,13.694963 1.5534394,10.102725 1.5987364,5.388525 5.4353,1.5453 10.133627,1.5071625 c 4.803161,-0.038925 8.723031,3.870225 8.723031,8.6807255 0,3.556237 -2.142525,6.619387 -5.200294,7.959487 -0.109543,0.04804 -0.184664,0.150975 -0.200249,0.269887 -0.04429,0.3366 -0.0925,0.678938 -0.143515,1.019363 -0.01502,0.09956 0.08106,0.178425 0.175694,0.145125 3.861791,-1.362938 6.6378,-5.0589 6.6378,-9.39375 C 20.12587,4.6891125 15.659746,0.21735 10.176009,0.2331 Z M 9.9967273,4.8000375 C 13.057973,4.681125 15.586082,7.145325 15.586082,10.190925 c 0,1.5489 -0.654003,2.947275 -1.699309,3.9321 -0.08869,0.08347 -0.13634,0.20205 -0.1295,0.323888 0.02085,0.370462 0.01323,0.730462 -0.01132,1.137037 -0.0066,0.108338 0.114475,0.177525 0.203836,0.116438 1.752903,-1.20195 2.905845,-3.223013 2.905845,-5.509463 0,-3.7647 -3.125266,-6.8108625 -6.9092452,-6.6637125 -3.5165697,0.1368 -6.3378757,3.0459375 -6.3829484,6.5768625 -0.0296,2.322225 1.130406,4.379513 2.9058454,5.596538 0.089136,0.06109 0.2098909,-0.0082 0.2032758,-0.116438 -0.024667,-0.4068 -0.032179,-0.7668 -0.011436,-1.137262 0.00684,-0.121725 -0.0407,-0.2403 -0.1291636,-0.323663 C 5.4540242,13.107825 4.7920606,11.652638 4.8342182,10.046138 4.9084424,7.2190125 7.1801303,4.9095 9.9967273,4.8000375 Z"
               id="Shape"
               inkscape:connector-curvature="0" />
          </g>
        </g>
        <g
           id="Group"
           transform="matrix(18.047822,0,0,18.047822,6201.6569,-3030.3406)"
           style="fill:#0000ff"
           inkscape:export-filename="G:\Users\suitedoalex\sites\apple-podcasts-logo-6.png"
           inkscape:export-xdpi="1.7984118"
           inkscape:export-ydpi="1.7984118" />
      </g>
    </g>
  </g>
</svg>
