<svg xmlns="http://www.w3.org/2000/svg" viewBox="0 0 408 408"><title>apple-svg</title><g id="Camada_2" data-name="Camada 2"><g id="Capa_1" data-name="Capa 1"><path d="M204,0h0C107,0,0,67,0,204H0c0,82,63,204,204,204h0c70,0,204-49,204-213.71h0C408,127,351,7,204,0Zm52.56,288.54-9.27,74.18A30,30,0,0,1,217.52,389h-27a30,30,0,0,1-29.76-26.28l-9.28-74.18A53,53,0,0,1,204,229a45,45,0,1,1,45-45,45.05,45.05,0,0,1-45,45A53,53,0,0,1,256.56,288.54ZM204,109a84.92,84.92,0,0,0-71.49,130.88A83,83,0,0,0,121.43,274a115,115,0,1,1,165.14,0,83.1,83.1,0,0,0-11.07-34.08A84.93,84.93,0,0,0,204,109Zm74.84,243.17,4.62-36.94A145,145,0,0,0,349,194C349,114.05,284,49,204,49S59,114.05,59,194a145,145,0,0,0,65.54,121.23l4.62,36.94C70,324.06,29,263.73,29,194,29,97.51,107.51,19,204,19S379,97.51,379,194C379,263.73,338,324.06,278.84,352.17Z"/></g></g></svg>