<svg xmlns="http://www.w3.org/2000/svg" viewBox="0 0 512 509.01"><defs><style>.cls-1{fill:#f8e931;}</style></defs><title>apple-pod</title><g id="Camada_2" data-name="Camada 2"><g id="Capa_1" data-name="Capa 1"><path class="cls-1" d="M256,0C114.62,0,0,114.62,0,256,0,384,94,490.12,216.74,509c-8.61-37.07-25.14-134.74-17-164.17,7.26-26.33,48.88-30,58-30s50.69,3.63,58,30c8.08,29.28-8.26,126.13-16.91,163.61C419.77,488.12,512,382.82,512,256,512,114.62,397.38,0,256,0Zm0,293.77a55.39,55.39,0,1,1,55.39-55.39A55.39,55.39,0,0,1,256,293.77Zm0-157.87a121.94,121.94,0,0,0-83.07,211.28c-1.46,10.71-1.53,24.27-.69,39.11a153.33,153.33,0,0,1-69.58-128.38c0-84.55,68.79-153.34,153.34-153.34s153.34,68.79,153.34,153.34a153.19,153.19,0,0,1-66.12,126c.77-15.23.54-29-1.24-39.55A121.94,121.94,0,0,0,256,135.9Zm75.21,341.63c2-11,4.07-23.23,5.92-35.94C407.55,410.36,456.8,339.77,456.8,257.91c0-110.73-90.08-200.8-200.8-200.8S55.19,147.18,55.19,257.91c0,83.24,50.93,154.82,123.25,185.22,1.86,12.61,3.92,24.75,5.89,35.59C91.31,448.44,23.88,360.9,23.88,257.91,23.88,129.91,128,25.79,256,25.79S488.13,129.91,488.13,257.91C488.13,359.59,422.41,446.2,331.21,477.53Z"/></g></g></svg>