<svg xmlns="http://www.w3.org/2000/svg" viewBox="0 0 403.5 413"><title>Ativo 2</title><g id="Camada_2" data-name="Camada 2"><g id="Capa_1" data-name="Capa 1"><path d="M200.5,0l-.74,3.72c-.15.75,1.5-3.72.74-3.72C103.89.56,0,68.11,0,204.5H0C0,302,72.5,405,199.5,413h0c67,0,198-63,204-213.71h0C403.5,132,347.5,7,200.5,0Zm51.56,293.54-9.27,74.18A30,30,0,0,1,213,394H186a30,30,0,0,1-29.76-26.28l-9.28-74.18A53,53,0,0,1,199.5,234a45,45,0,1,1,45-45,45.05,45.05,0,0,1-45,45A53,53,0,0,1,252.06,293.54ZM199.5,114A84.92,84.92,0,0,0,128,244.88,83,83,0,0,0,116.93,279a115,115,0,1,1,165.14,0A83.1,83.1,0,0,0,271,244.88,84.93,84.93,0,0,0,199.5,114Zm74.84,243.17L279,320.23A145,145,0,0,0,344.5,199c0-79.95-65.05-145-145-145s-145,65.05-145,145A145,145,0,0,0,120,320.23l4.62,36.94C65.5,329.06,24.5,268.73,24.5,199c0-96.49,78.51-175,175-175s175,78.51,175,175C374.5,268.73,333.5,329.06,274.34,357.17Z"/></g></g></svg>