<svg xmlns="http://www.w3.org/2000/svg" viewBox="0 0 295 295"><defs><style>.cls-1{fill:#662483;}</style></defs><title>g-podcast</title><g id="Camada_2" data-name="Camada 2"><g id="Camada_1-2" data-name="Camada 1"><path class="cls-1" d="M147.5,0A147.5,147.5,0,1,0,295,147.5,147.5,147.5,0,0,0,147.5,0ZM59.86,155.68a14.61,14.61,0,0,1-29.21,0V139.32a14.61,14.61,0,0,1,29.21,0Zm50.48,47.56a14.61,14.61,0,0,1-29.21,0V187a14.61,14.61,0,0,1,29.21,0Zm0-59.83a14.61,14.61,0,1,1-29.21,0V91.65a14.61,14.61,0,1,1,29.21,0Zm51.77,106.33a14.61,14.61,0,0,1-29.22,0V233.5a14.61,14.61,0,0,1,29.22,0Zm0-59.82a14.61,14.61,0,0,1-29.22,0V105a14.61,14.61,0,0,1,29.22,0Zm0-128.42a14.61,14.61,0,0,1-29.22,0V45.26a14.61,14.61,0,0,1,29.22,0Zm51.76,141.74a14.61,14.61,0,0,1-29.21,0V151.47a14.61,14.61,0,0,1,29.21,0Zm0-95.24a14.61,14.61,0,0,1-29.21,0V91.65a14.61,14.61,0,1,1,29.21,0Zm35.87,62.17a14.59,14.59,0,0,1-14.6-14.49V139.32a14.61,14.61,0,0,1,29.21,0v16.36A14.6,14.6,0,0,1,249.74,170.17Z"/></g></g></svg>