<svg xmlns="http://www.w3.org/2000/svg" viewBox="0 0 648.36 224.35"><defs><style>.cls-1{fill:#742282;}</style></defs><g id="Layer_2" data-name="Layer 2"><g id="Camada_1" data-name="Camada 1"><path class="cls-1" d="M286.65,46.36h-7.48A11.83,11.83,0,0,0,268.11,54l-19.33,46L229.53,54.12a11.9,11.9,0,0,0-11.13-7.76H211a11.77,11.77,0,0,0-11.84,11.29l-5.5,74.79A11.73,11.73,0,0,0,197,141.1a12,12,0,0,0,20.59-7.83l1.58-46.9,16.82,43a11.8,11.8,0,0,0,11,7.54h3.58a11.8,11.8,0,0,0,11.05-7.54l16.89-43.15,1.77,47.12a11.86,11.86,0,1,0,23.69-1L298.5,57.8A11.81,11.81,0,0,0,286.65,46.36Z"/><path class="cls-1" d="M399.59,125.51a3.29,3.29,0,0,0-.21-.42L370.56,53.8a11.84,11.84,0,0,0-11-7.44H351a11.85,11.85,0,0,0-11,7.43l-30.18,74.58a11.89,11.89,0,1,0,22.12,8.74L339,118.79h31.48l7.07,18.32a12,12,0,0,0,11.09,7.62h1.07a11.9,11.9,0,0,0,11-16.36ZM347.47,97.05l7.29-18.85,7.38,18.85Z"/><path class="cls-1" d="M465.48,92.22c-6.05-4.24-13.5-6.61-20.08-8.7-10.06-3.19-16.22-5.4-16.22-10.43a3.86,3.86,0,0,0,0-.58,4.87,4.87,0,0,1,1.23-3.16c3.73-4.32,15.55-4.82,32-1a10.73,10.73,0,0,0,2.38.27,10.4,10.4,0,0,0,2.75-20.44,99.81,99.81,0,0,0-25.14-3.6c-23.34,0-37.85,11.61-37.85,30.29,0,10.74,4.44,18.64,13.34,24,6.05,4.25,13.5,6.61,20.08,8.7C448,110.76,454.11,113,454.11,118a3.77,3.77,0,0,0,0,.58,4.87,4.87,0,0,1-1.23,3.16c-2,2.34-6.56,3.63-12.76,3.63h0A87.79,87.79,0,0,1,421,122.74a10.75,10.75,0,0,0-2.39-.27,10.4,10.4,0,0,0-2.74,20.43A99.27,99.27,0,0,0,441,146.51c23.34,0,37.85-11.61,37.85-30.29C478.82,105.48,474.38,97.58,465.48,92.22Z"/><path class="cls-1" d="M552.68,116.22c0-10.74-4.43-18.64-13.33-24-6.05-4.24-13.51-6.61-20.08-8.7-10.06-3.19-16.22-5.4-16.22-10.43,0-.12,0-.36,0-.48a4.77,4.77,0,0,1,1.32-3.38c2.07-2.26,6.56-3.51,12.66-3.51a87.34,87.34,0,0,1,19.2,2.63,10.59,10.59,0,0,0,2.38.27,10.4,10.4,0,0,0,2.75-20.44,99.89,99.89,0,0,0-25.14-3.6c-23.35,0-37.85,11.61-37.85,30.29,0,10.74,4.44,18.64,13.34,24,6,4.25,13.5,6.61,20.08,8.7C521.81,110.76,528,113,528,118c0,.12,0,.36,0,.48a4.73,4.73,0,0,1-1.31,3.38c-2.08,2.26-6.57,3.51-12.67,3.51h0a87.79,87.79,0,0,1-19.19-2.63,10.75,10.75,0,0,0-2.39-.27,10.4,10.4,0,0,0-2.75,20.43,99.43,99.43,0,0,0,25.15,3.61C538.18,146.51,552.68,134.9,552.68,116.22Z"/><path class="cls-1" d="M647.49,128.37l-1.16-2.86c-.06-.14-.13-.29-.2-.42L617.3,53.8a11.83,11.83,0,0,0-11-7.44h-8.52a11.85,11.85,0,0,0-11,7.43l-30.18,74.58a11.9,11.9,0,0,0,11,16.36,12,12,0,0,0,11.1-7.62l7.06-18.32h31.49l7.06,18.33a12,12,0,0,0,11.1,7.61h1.07a11.9,11.9,0,0,0,11-16.36ZM594.21,97.05l7.3-18.85,7.37,18.85Z"/><path class="cls-1" d="M164,42.16a87,87,0,0,0-32.28-30.52,96.08,96.08,0,0,0-91.68,0A87,87,0,0,0,7.73,42.16a6.24,6.24,0,0,0,.67,7.45,74.29,74.29,0,0,0-6.24,52.1,6.43,6.43,0,0,0,.13,1.15l.63,3c-1.5,5.58-1.09,16.32,1.43,28.35s6.47,22.14,10.11,26.8l.7,3.35A6,6,0,0,0,21,169.12a6.07,6.07,0,0,0,.85-.06l.66,3.13a3.28,3.28,0,0,0,3.78,2.55l14.15-2.54a3.27,3.27,0,0,0,2.62-3.89l-.26-1.26a4.14,4.14,0,0,0,2.68-4.76l-.16-.78,3.25-.12,3.11-.11.39,0,.3,0,.39,0h.39l.1,0,.13,0h.16l.07,0,.12,0h0l.28-.06.2-.05a7.19,7.19,0,0,0,.78-.24l.07,0h0l.16-.06.41-.17.21-.08h0l.32-.15.65-.33h0a10.2,10.2,0,0,0,1.57-1.07h0l0,0c.16-.12.31-.26.47-.4l.16-.14.21-.22.08-.08h0c.15-.16.3-.32.44-.45h0l0,0,.57-.68,0,0s.06-.08.09-.13.26-.34.43-.6l.06-.08v0l.06-.09h0l.09-.15.25-.4,0-.06,0-.08,0,0h0l.23-.44.07-.13c.06-.13.13-.25.18-.35v0l0,0,.05-.12h0l.21-.49.07-.15.05-.12h0l0-.09s0-.09,0-.14l0-.05,0-.1h0l0,.08.12-.34,0-.05h0c0-.1.07-.21.11-.29v0a15.83,15.83,0,0,0,.42-1.57v0a2.33,2.33,0,0,1,.05-.28l0-.14V150a.77.77,0,0,0,0-.15.3.3,0,0,1,0,.1l0-.31v-.09c0-.17.06-.35.08-.54a1,1,0,0,0,0-.23v0c0-.06,0-.13,0-.19v-.05a1.27,1.27,0,0,0,0-.2v-.05a2.35,2.35,0,0,1,0-.26h0v-.84h0c0,.06,0,.11,0,.17,0-.19,0-.39,0-.56h0v-.27c0-1.82-.06-3.64-.08-5.47v-.63l0-1.16c0-1.56,0-3.12-.07-4.68v-.51h0c0-.33,0-.67,0-1l0-2.14,0-3.13,0-1.54c0-1.06,0-2.11,0-3.17l0-1.46,0-2.23c0-.27,0-.54,0-.81l8.35,22.35c.06.17.14.36.21.53l.45,1,.24.47.57,1c.1.16.23.35.35.52a13,13,0,0,0,9.08,5.47h0l.41.07.23,0h0a5.35,5.35,0,0,0,.59.06l.4,0c.24,0,.47,0,.67,0h.59l1,0h0l6.61-.24h.14l3.59-.18h0l.49,0,.19,0h.18l.14,0H98l.22,0,.81-.19.65-.2c.23-.08.54-.21.76-.3l.14-.06.47-.22h0a11.35,11.35,0,0,0,4-3.38l.06-.07,0,0,.08-.11.15-.21.18-.25.06-.09.1-.16.29-.45c.12-.21.24-.42.35-.63l0-.05.13-.27.14-.28.1-.21.07-.16c0-.06,0-.12.08-.19l.17-.4.1-.27.06-.17-.06.16c.07-.18.13-.37.19-.52s.17-.57.25-.82h0l.82-3,.83-3,.82-3,.82-3,.81-2.94.81-2.91.8-2.89.79-2.87,0-.07v0l0,0s0,.32.1.91l1.95,26.26c0,.23.05.51.08.77l.07.52a1.85,1.85,0,0,0,0,.23l.12.71c0,.14.07.3.1.45l0,.11,0,.1.43,1.45c.07.22.17.48.27.72l.13.3c2.88,7.53,9.3,9.57,14.49,9.21,0,0,5.59-.19,7.87-.37,7.37-1.31,9.84-7,10.43-11.58a18.84,18.84,0,0,0,.15-3.09c0-.9-2.7-25.14-2.7-25.14l-3.59-35.58-.4-3.82-.47-4.5-.47-4.5-.47-4.5-.47-4.5-.46-4.49-.47-4.5h0v-.19c0-.3-.07-.64-.1-.92v-.06l0-.09c0-.05,0-.11,0-.16,0-.22-.07-.44-.12-.67v-.09l-.09-.38,0-.09s0,0,0-.06l0-.18,0-.15c0-.06,0-.13,0-.2l-.08-.24c0-.14-.08-.27-.12-.42l.09.33-.06-.2a.65.65,0,0,0,0-.13.29.29,0,0,0,0-.09s0-.07,0-.11l0-.14c-.05-.14-.11-.31-.18-.48l-.07-.19c-.05-.11-.09-.23-.13-.32l-.11-.24a2.29,2.29,0,0,0-.1-.23l-.21-.45c0-.07-.08-.15-.12-.23l0,0A1,1,0,0,0,139,45l-.1-.2L139,45l-.08-.16-.06-.11a1.29,1.29,0,0,1-.09-.16l-.23-.35a1.74,1.74,0,0,0-.11-.18l-.15-.25h0l0,0c-.13-.19-.3-.41-.46-.62l-.06-.08-.1-.14-.27-.32,0,0-.31-.37L137,42.1l0,0a.94.94,0,0,1-.1-.1l-.54-.54-.14-.13L136,41.1l-.3-.26-.4-.31-.2-.15-.24-.17-.51-.33-.18-.11,0,0-.94-.49-.74-.3h0l0,0h0a2,2,0,0,0-.25-.14l-.27-.13-.17-.08-.17-.08-.6-.25-.15,0-.16-.06-.32-.1-.64-.17h-.1l-.57-.11-.39-.05-.18,0h-.13a6.62,6.62,0,0,0-.77,0h-.2l-4.37.15c-.76,0-9.29.29-10,.31-6.43.23-8.92,2.8-8.92,2.8s-.3.28-.52.51l-.15.15-.31.34-.15.17-.39.47-.6.82-.05.09-.41.64-.39.71-.09.17c-.07.16-.15.31-.23.5l-.1.21-.17.41-.1.25c-.07.17-.14.38-.2.57L87.23,90l0,0-1.08-2.71-1.08-2.73L84,81.72l-1.11-2.78-1.11-2.8-1.12-2.81L79.48,70.5l-1.13-2.84L77.22,64.8l-1.14-2.86-1.15-2.87-1.14-2.88-1.15-2.88L71.5,50.43h0v0h0c-.08-.24-.2-.54-.29-.77l0-.09L71,49.17l0-.05-.09-.18,0-.06-.08-.17-.08-.14-.09-.18h0l-.12-.24,0-.06v0l-.12-.21-.23-.4-.21-.31a2.13,2.13,0,0,0-.16-.25l-.09-.13-.31-.42c-.1-.14-.21-.27-.32-.4s-.24-.3-.35-.42h0c-.12-.15-.25-.27-.37-.4l-.17-.18c-.13-.13-.25-.25-.38-.36s-.17-.17-.26-.24l-.22-.19a11.31,11.31,0,0,0-1.37-1l-.11-.08,0,0L65.51,43,65,42.68l-.59-.28h0l-.06,0,0,0-.06,0-.06,0h0l0,0L63.71,42l-.6-.29h0l0,0-.06,0-.05,0-.07,0-.37-.15-.21-.08-.06,0h0L62,41.3l-.2-.06-.09,0-.09,0-.15,0c-.15,0-.3-.08-.46-.12h-.05l.1,0-.15,0h-.06l-.16,0-.14,0L60,40.87l-.18,0h0c-.21,0-.43,0-.65-.05h-.69l-8.07.29H50l-1.6,0c-5.62-.06-8.84.32-10.63,1.26A11.13,11.13,0,0,0,35.56,44l-.12.11-.2.19-.52.54-.06.06-.6.7-.24.32c-.08.11-.18.24-.28.4l-.26.38c-.08.12-.15.25-.24.4l-.14.22c-.12.2-.25.45-.37.68L32,49.22l0,.1,0,.09L31.7,50l-.1.29a13,13,0,0,0-.5,1.92l-.2,1.25a7.76,7.76,0,0,0-.09,1l-.67,37.35a4.12,4.12,0,0,0-3.37-1.36l-.3-1.41a3.26,3.26,0,0,0-3.78-2.55L8.54,89a3.19,3.19,0,0,0-1,.39c-.15-1.8-.23-3.62-.23-5.44a67.91,67.91,0,0,1,8.05-32,7.53,7.53,0,0,0,2.61-1l.21-.13c.13-.08.26-.18.38-.27l.32-.26.29-.26.36-.38c.07-.08.14-.15.2-.23a5.9,5.9,0,0,0,.5-.7C33.59,26.85,58.75,13.28,85.85,13.28s52.26,13.57,65.65,35.43a6.42,6.42,0,0,0,.42.6,1.15,1.15,0,0,0,.14.17c.11.13.22.26.34.38l.18.17a3.61,3.61,0,0,0,.35.33l.19.15c.13.1.26.2.4.29l.19.12.45.26.17.09.52.23.13.06.6.2.09,0c.23.07.47.12.71.17a68,68,0,0,1,8,32c0,2.21-.13,4.4-.34,6.58A3.29,3.29,0,0,0,161.87,89L147.72,86.5a2.76,2.76,0,0,0-1.65.09L148.24,108l4.1-19.51,1.75.31-5.25,25,3.07,29.09c0,.17,0,.34,0,.48v.8h0l-.16,2.22c0,.1,0,.2,0,.3l0,.19,0,.09c0,.11-.05.25-.07.37l-.17.76,0,.11q0,.19-.09.36l-.37,1.11h0l-.36.88-.49,1a12.33,12.33,0,0,1-2,3.28l-.4.43-.23.24-.24.23-.3.27a4.35,4.35,0,0,1-.35.31l-.07.06-.34.27-.18.14a13.4,13.4,0,0,1-1.31.86l-.1.06-.38.21L144,158c-.29.15-.6.29-.9.42l-.08,0-.26.1-.32.11-1.83.48-.26,0-.36.05-.26,0-.45,0-2.61,12.54-1.75-.31,2.55-12.18-6.8.25h-.41l-1.07-.05a7.73,7.73,0,0,1-1.16-.16l-1.06-.25a11.35,11.35,0,0,1-1.32-.44l-.75,3.61a4.14,4.14,0,0,0,2.68,4.76l-.26,1.26A3.27,3.27,0,0,0,130,172.2l14.15,2.54a3.28,3.28,0,0,0,3.78-2.55l.42-2a6.77,6.77,0,0,0,1.09.09,7.14,7.14,0,0,0,7-5.65l1.27-6.07c3.13-5.29,6.29-14.11,8.43-24.31s2.76-19.47,2-25.46l1.18-5.67c0-.13,0-.25.06-.37a74.44,74.44,0,0,0-6-53.12A6.25,6.25,0,0,0,164,42.16ZM31.23,93.31l1.13-37.56c0-.37,0-.73,0-1.09,0-.11,0-.21,0-.37s0-.47.07-.7l0-.11c0-.1,0-.2,0-.31.05-.31.11-.62.2-1l0-.1c.07-.3.16-.6.25-.89l.12-.35c.08-.23.16-.46.25-.68l0-.08a1.6,1.6,0,0,0,.1-.23c.11-.25.23-.5.36-.74s.11-.21.16-.32l.37-.62.18-.27c.14-.22.29-.42.44-.62l.21-.27.48-.55.22-.22a5.9,5.9,0,0,1,.51-.49l.25-.22c.19-.16.38-.31.58-.45l.23-.16c.19-.13.39-.25.59-.36l.26-.15a7.92,7.92,0,0,1,.72-.35l.24-.09.24-.09.09,0a8.18,8.18,0,0,1,2.43-.48l4.32-.21c2-.06,7.26,0,9.72,1.76.25.21.5.43.74.67a1.36,1.36,0,0,0,.12.12,13.31,13.31,0,0,1,3,4.83q11.49,28.89,23,57.78l.84-2.79c.19,0,17.57-56.92,17.57-56.92.07-.28.15-.54.24-.81l.09-.25c.06-.19.13-.37.2-.54s.07-.19.11-.28.15-.34.23-.5l.12-.25c.1-.2.21-.39.32-.58l.07-.13c.14-.23.28-.45.43-.67l.13-.18a5.3,5.3,0,0,1,.34-.45l.18-.22.37-.43.15-.16.39-.38.16-.15s1.7-2.19,7.33-2.93c.37,0,1.08-.1,1.9-.16l3.94-.18h.39c5.63,0,10.37,5.15,10.87,12,1.45,14,10,88.66,10,88.66s.09.92.14,1.78c.43,3.6-1.78,16.51-13.59,13.46a5.24,5.24,0,0,1-1.57-.72,12.16,12.16,0,0,1-5.09-6.54l-.06-.17c-.09-.25-.17-.5-.25-.76l-.08-.29c-.07-.24-.13-.47-.19-.72a3.59,3.59,0,0,1-.08-.35c-.06-.25-.11-.5-.16-.77,0-.11,0-.22-.07-.33-.06-.38-.12-.77-.17-1.17-.43-9.15-1.14-17.63-1.6-22.62l-1.06-5.74L113,85.6h0l-.45-6-16.5,59.56c-1.4,5.07-5.19,8.48-9.63,8.69l-.39,0h0c-8.91.11-11.46-4.67-11.47-4.68A13.41,13.41,0,0,1,73,140.1L52,85.38h0l-1-2.75q.5,31.92,1,63.84c.1,5.76-2.91,10.64-7.2,12.35L31.21,94.11ZM19.36,88.44l17.39,83.08-1.75.31L17.61,88.75Zm2,78.38c-.12,0-.25,0-.38,0a3.69,3.69,0,0,1-3.61-2.94l-.08-.39L4.51,102.4A3.64,3.64,0,0,1,7,98.14ZM166.69,99.57a3.68,3.68,0,0,1,.56,2.83l-12.8,61.12-.08.39a3.71,3.71,0,0,1-3.61,2.94l-.39,0,14.38-68.68A3.66,3.66,0,0,1,166.69,99.57Z"/><path class="cls-1" d="M575.59,171.29H547.84a4.09,4.09,0,0,0-4.08,4.09v44.88a4.09,4.09,0,0,0,4.08,4.09h2a4.09,4.09,0,0,0,4.08-4.09v-17h14.53a4.38,4.38,0,0,0,3.13-1.34,4,4,0,0,0,1.13-2.93,4.1,4.1,0,0,0-4.08-4H553.92v-15.5h21.51a4.21,4.21,0,0,0,4.19-3.4,4.09,4.09,0,0,0-4-4.77Zm1.81,4.4a2,2,0,0,1-2,1.52H553.92a2.24,2.24,0,0,0-2.24,2.25V195a2.24,2.24,0,0,0,2.24,2.24h14.71a1.88,1.88,0,0,1,1.84,1.84,1.73,1.73,0,0,1-.51,1.27,2.13,2.13,0,0,1-1.51.65H553.92a2.24,2.24,0,0,0-2.24,2.25v17a1.84,1.84,0,0,1-1.84,1.84h-2a1.83,1.83,0,0,1-1.83-1.84V175.38a1.83,1.83,0,0,1,1.83-1.84h27.75a1.84,1.84,0,0,1,1.81,2.15Z"/><path class="cls-1" d="M634.92,171.29h-5.13a4.62,4.62,0,0,0-4.31,3c-.1.24-9.17,22.25-12.86,30.65-3.69-8.4-12.75-30.4-12.84-30.61a4.64,4.64,0,0,0-4.33-3h-5.13a4.6,4.6,0,0,0-4.61,4.43l-2.6,43.84a4.68,4.68,0,0,0,9.35.32h-.08a0,0,0,0,0,0,0h0c.14-.91.22-2.54.36-5.48.22-4.73.63-13.5,1.36-29.7,5.13,12.58,8.93,21.71,11.31,27.16a39.4,39.4,0,0,0,2.47,5.21,4.58,4.58,0,0,0,4.2,2.71h1.06a4.58,4.58,0,0,0,4.2-2.71,39.4,39.4,0,0,0,2.47-5.21c2.38-5.45,6.18-14.58,11.31-27.16.73,16.2,1.14,25,1.36,29.7.14,2.94.22,4.57.36,5.48h0a0,0,0,0,0,0,0h-.08a4.68,4.68,0,0,0,9.35-.34l-2.6-43.81A4.6,4.6,0,0,0,634.92,171.29Zm4.3,50.08a2.31,2.31,0,0,1-1.71.73,2.39,2.39,0,0,1-2.44-1.86,2.18,2.18,0,0,0,0-.72.17.17,0,0,0,0-.07c-.12-.82-.2-2.49-.33-5.2-.29-6.26-.75-16.25-1.36-29.69a2.24,2.24,0,0,0-1.86-2.12,2.34,2.34,0,0,0-.38,0,2.24,2.24,0,0,0-2.08,1.4c-5.12,12.57-8.92,21.69-11.29,27.11a52.08,52.08,0,0,1-2.24,4.82,2.22,2.22,0,0,0-.21.37,2.34,2.34,0,0,1-2.16,1.38h-1.06a2.34,2.34,0,0,1-2.16-1.38,2.22,2.22,0,0,0-.21-.37,52.08,52.08,0,0,1-2.24-4.82c-2.37-5.42-6.17-14.54-11.29-27.11a2.24,2.24,0,0,0-2.08-1.4,2.43,2.43,0,0,0-.38,0,2.24,2.24,0,0,0-1.86,2.12c-.62,13.68-1.08,23.67-1.36,29.69-.13,2.71-.21,4.38-.33,5.2a.17.17,0,0,0,0,.07,2.18,2.18,0,0,0,0,.72,2.39,2.39,0,0,1-2.44,1.86,2.31,2.31,0,0,1-1.71-.73,2.23,2.23,0,0,1-.66-1.67l2.6-43.9a2.34,2.34,0,0,1,2.36-2.26h5.13a2.37,2.37,0,0,1,2.22,1.55.36.36,0,0,0,0,.09l.14.35c2.79,6.76,9.61,23.24,12.72,30.3a2.22,2.22,0,0,0,2,1.34,2.24,2.24,0,0,0,2.06-1.34c3.69-8.4,12.79-30.5,12.88-30.7l0-.08a2.36,2.36,0,0,1,2.2-1.51h5.13a2.37,2.37,0,0,1,2.37,2.33l2.59,43.75A2.3,2.3,0,0,1,639.22,221.37Z"/></g></g></svg>